<svg version="1.2" xmlns="http://www.w3.org/2000/svg" viewBox="0 0 899 1589" width="899" height="1589">
	<title>geometric_frame_banner-20-ai</title>
	<style>
		.s0 { fill: #482267 } 
		.s1 { fill: #e8f214 } 
		.s2 { fill: #e73b95 } 
		.s3 { fill: #3576bc } 
		.s4 { fill: #ea9d15 } 
		.s5 { fill: #43c1c4 } 
		.s6 { fill: #72c9bf } 
		.s7 { fill: #67144a } 
		.s8 { fill: #fef169 } 
		.s9 { fill: #68cce9 } 
		.s10 { fill: #f8a98f } 
		.s11 { fill: #ee2857 } 
		.s12 { fill: #42b649 } 
		.s13 { fill: #000000 } 
		.s14 { fill: #423d98 } 
		.s15 { fill: #a5a637 } 
		.s16 { fill: #0094c2 } 
		.s17 { fill: #bc4398 } 
		.s18 { fill: #39b884 } 
		.s19 { fill: #00afac } 
		.s20 { fill: #a1dbf7 } 
		.s21 { fill: #b57b2b } 
		.s22 { fill: #faee47 } 
		.s23 { fill: #df4799 } 
		.s24 { fill: #63297c } 
		.s25 { fill: #911a1f } 
		.s26 { fill: #ef4323 } 
		.s27 { fill: #ed2a91 } 
	</style>
	<g id="Layer 1">
		<g id="&lt;Group&gt;">
			<g id="&lt;Group&gt;">
				<g id="&lt;Group&gt;">
					<path id="&lt;Path&gt;" class="s0" d="m452.7 1141.5v191.1l-87.4-38.5c-44.1-107.9-161.4-185-299.2-185-24.6 0-48.5 2.4-71.5 7.1v-317.2h343l-132.8 233.2z"/>
					<path id="&lt;Path&gt;" class="s1" d="m67.6 1597.1h-73v-32.2z"/>
					<path id="&lt;Path&gt;" class="s2" d="m365.3 1294.1l-370.7-163.4v-14.5c23-4.7 46.9-7.1 71.5-7.1 137.8 0 255.1 77.1 299.2 185z"/>
					<path id="&lt;Path&gt;" class="s3" d="m452.7 799v342.5l-247.9-109.3 132.8-233.2z"/>
					<path id="&lt;Path&gt;" class="s4" d="m383.9 1388.7c0 82.8-40.9 157.2-106 208.4h-210.3l-73-32.2v-434.2l370.7 163.4c12 29.5 18.6 61.4 18.6 94.6z"/>
					<path id="&lt;Path&gt;" class="s5" d="m452.7 1332.6v264.5h-174.8c65.1-51.2 106-125.6 106-208.4 0-33.2-6.6-65.1-18.6-94.6z"/>
				</g>
				<g id="&lt;Group&gt;">
					<path id="&lt;Path&gt;" class="s6" d="m909.5 1428.5v168.6h-291.7l81.1-142.4-247.6-109.2v-191.1l286.5 126.2c45.4 58.8 103.8 109.2 171.7 147.9z"/>
					<path id="&lt;Path&gt;" class="s7" d="m671.1 799q-3.2 7.6-6.1 15.4l-35-15.4z"/>
					<path id="&lt;Path&gt;" class="s8" d="m909.5 1356.3v72.2c-67.9-38.7-126.3-89.1-171.7-147.9z"/>
					<path id="&lt;Path&gt;" class="s9" d="m909.5 799v123.1l-244.5-107.7q2.9-7.8 6.1-15.4z"/>
					<path id="&lt;Path&gt;" class="s10" d="m737.8 1280.6l-286.5-126.2v-355.4h178.7l35 15.4c-20.2 52.9-31.1 109.6-31.1 168.4 0 110.4 38.4 212.9 103.9 297.8z"/>
					<path id="&lt;Path&gt;" class="s11" d="m909.5 922.1v434.2l-171.7-75.7c-65.5-84.9-103.9-187.4-103.9-297.8 0-58.8 10.9-115.5 31.1-168.4z"/>
					<path id="&lt;Path&gt;" class="s12" d="m698.9 1454.7l-81.1 142.4h-166.5v-251.6z"/>
				</g>
			</g>
			<g id="&lt;Group&gt;">
				<g id="&lt;Group&gt;">
					<path id="&lt;Path&gt;" class="s13" d="m533.4 400.9h-18.3l7.2-20.7z"/>
					<path id="&lt;Path&gt;" class="s14" d="m906 147.2l-81.5-151.2h81.5z"/>
					<path id="&lt;Path&gt;" class="s15" d="m906 400.9h-372.6l-11.1-20.7 133.8-384.2h168.4l81.5 151.2z"/>
					<path id="&lt;Path&gt;" class="s16" d="m522.3 380.2l-56.1-104c64.1-50.2 104.4-123.3 104.4-204.7 0-26.2-4.1-51.5-11.9-75.5h97.4z"/>
					<path id="&lt;Path&gt;" class="s17" d="m515.1 400.9h-520.1v-184.3c55 77.4 152.8 128.9 264.2 128.9 79.5 0 152-26.2 207-69.3l56.1 104z"/>
					<path id="&lt;Path&gt;" class="s18" d="m533.4 400.9h-18.3l7.2-20.7z"/>
					<path id="&lt;Path&gt;" class="s19" d="m259.2 345.5c-111.4 0-209.2-51.5-264.2-128.9v-220.6h320.2l151 280.2c-55 43.1-127.5 69.3-207 69.3z"/>
					<path id="&lt;Path&gt;" class="s20" d="m466.2 276.2l-151-280.2h243.5c7.8 24 11.9 49.3 11.9 75.5 0 81.4-40.3 154.5-104.4 204.7z"/>
				</g>
				<g id="&lt;Group&gt;">
					<path id="&lt;Path&gt;" class="s21" d="m685.1 654.9l-137.7-255.4h358.6v163.2z"/>
					<path id="&lt;Path&gt;" class="s22" d="m846.4 804.3h-127.1q0.1-1.7 0-3.5c0-117.5-108.2-212.7-241.6-212.7q-19.5 0.1-38.2 2.7l66.6-191.3h41.3l137.7 255.4 220.9-92.2v70.5z"/>
					<path id="&lt;Path&gt;" class="s23" d="m906 804.3h-59.6l59.6-171.1z"/>
					<path id="&lt;Path&gt;" class="s24" d="m236 804.3h-241v-127q7.3 0.8 14.8 0.8c66.7 0 120.8-47.6 120.8-106.3 0-58.7-54.1-106.3-120.8-106.3q-7.5 0-14.8 0.8v-66.8h511.1l-66.6 191.3c-115.3 16.1-203.5 104-203.5 210q0 1.8 0 3.5z"/>
					<path id="&lt;Path&gt;" class="s25" d="m700.7 804.3h-464.7q0-1.7 0-3.5c0-106 88.2-193.9 203.5-210l-45.6 130.8z"/>
					<path id="&lt;Path&gt;" class="s26" d="m719.3 804.3h-18.6l-306.8-82.7 45.6-130.8q18.7-2.6 38.2-2.7c133.4 0 241.6 95.2 241.6 212.7q0.1 1.8 0 3.5z"/>
					<path id="&lt;Path&gt;" class="s27" d="m9.8 678.1q-7.5 0-14.8-0.8v-211q7.3-0.8 14.8-0.8c66.7 0 120.8 47.6 120.8 106.3 0 58.7-54.1 106.3-120.8 106.3z"/>
				</g>
			</g>
		</g>
	</g>
</svg>