<svg version="1.2" xmlns="http://www.w3.org/2000/svg" viewBox="0 0 910 1585" width="910" height="1585">
	<title>geometric_frame_banner-20-ai</title>
	<style>
		.s0 { fill: #297ec2 } 
		.s1 { fill: #86c6ed } 
		.s2 { fill: #000000 } 
		.s3 { fill: #fec135 } 
		.s4 { fill: #28429b } 
		.s5 { fill: #02738b } 
		.s6 { fill: #26276b } 
		.s7 { fill: #6b2c91 } 
		.s8 { fill: #f8ec2b } 
		.s9 { fill: #e76124 } 
		.s10 { fill: #b11e51 } 
		.s11 { fill: #6bcce4 } 
		.s12 { fill: #da64a6 } 
		.s13 { fill: #ee2739 } 
		.s14 { fill: #ab1f23 } 
		.s15 { fill: #60cbee } 
		.s16 { fill: #510e22 } 
		.s17 { fill: #fed49f } 
		.s18 { fill: #5a4da0 } 
		.s19 { fill: #f68b23 } 
		.s20 { fill: #643212 } 
		.s21 { fill: #21235f } 
		.s22 { fill: #a74724 } 
		.s23 { fill: #324a9f } 
		.s24 { fill: #b38d2e } 
		.s25 { fill: #ef3c54 } 
		.s26 { fill: #8cd0be } 
		.s27 { fill: #4a99d4 } 
		.s28 { fill: #70c27c } 
		.s29 { fill: #f68b1f } 
		.s30 { fill: #e8e115 } 
		.s31 { fill: #af1f5f } 
		.s32 { fill: #30429b } 
		.s33 { fill: #006d78 } 
		.s34 { fill: #a95125 } 
		.s35 { fill: #851919 } 
		.s36 { fill: #6a9bd2 } 
		.s37 { fill: #2b53a4 } 
		.s38 { fill: #3db5e8 } 
		.s39 { fill: #013633 } 
		.s40 { fill: #4d813b } 
		.s41 { fill: #ffe300 } 
		.s42 { fill: #a1dce9 } 
		.s43 { fill: #b69e31 } 
		.s44 { fill: #6e60aa } 
	</style>
	<g id="Layer 1">
		<g id="&lt;Group&gt;">
			<g id="&lt;Group&gt;">
				<path id="&lt;Path&gt;" class="s0" d="m914.2 806.3h-182.2l-106.3-93c11.9-12.3 21.5-26.4 28.2-41.8l260.3-227.6z"/>
				<path id="&lt;Path&gt;" class="s1" d="m499.6 476.3c-40.5 0-77.6 12.7-106.3 33.9l-123.4-107.9h469.4l-128.1 112c-29.4-23.6-68.6-38-111.6-38z"/>
				<path id="&lt;Path&gt;" class="s2" d="m558 755.3l95.9-83.8c-6.7 15.4-16.3 29.5-28.2 41.8-17.9 18.7-41.2 33.3-67.7 42z"/>
				<path id="&lt;Path&gt;" class="s2" d="m533.8 776.5l-14.7-12.9c13.5-1.4 26.6-4.2 38.9-8.3z"/>
				<path id="&lt;Path&gt;" class="s3" d="m173.6 806.3h-174.3v-152.5z"/>
				<path id="&lt;Path&gt;" class="s4" d="m653.9 671.5c6.9-15.9 10.6-33.1 10.6-51.1 0-42-20.5-79.8-53.3-106.1l128.1-112h174.9v41.6z"/>
				<path id="&lt;Path&gt;" class="s2" d="m533.8 776.5l-14.7-12.9c13.5-1.4 26.6-4.2 38.9-8.3z"/>
				<path id="&lt;Path&gt;" class="s5" d="m732 806.3h-558.4l-174.3-152.5v-251.5h270.6l123.4 107.9c-35.9 26.4-58.6 66-58.6 110.2 0 79.7 73.8 144.2 164.9 144.2q9.9 0 19.5-1l14.7 12.9 24.2-21.2c26.5-8.7 49.8-23.3 67.7-42z"/>
				<path id="&lt;Path&gt;" class="s2" d="m558 755.3l57.8-50.6 9.9 8.6c-17.9 18.7-41.2 33.3-67.7 42z"/>
				<path id="&lt;Path&gt;" class="s6" d="m533.8 776.5l-14.7-12.9c13.5-1.4 26.6-4.2 38.9-8.3z"/>
				<path id="&lt;Path&gt;" class="s7" d="m615.8 704.7l-111.2-97.2 106.6-93.2c32.8 26.3 53.3 64.1 53.3 106.1 0 18-3.7 35.2-10.6 51.1z"/>
				<path id="&lt;Path&gt;" class="s8" d="m504.6 607.5l-111.3-97.3c28.7-21.2 65.8-33.9 106.3-33.9 43 0 82.2 14.4 111.6 38z"/>
				<path id="&lt;Path&gt;" class="s9" d="m499.6 764.6c-91.1 0-164.9-64.5-164.9-144.2 0-44.2 22.7-83.8 58.6-110.2l111.3 97.3-82 71.7 96.5 84.4q-9.6 1-19.5 1z"/>
				<path id="&lt;Path&gt;" class="s10" d="m519.1 763.6l-96.5-84.4 82-71.7 111.2 97.2-57.8 50.6c-12.3 4.1-25.4 6.9-38.9 8.3z"/>
				<path id="&lt;Path&gt;" class="s11" d="m558 755.3l95.9-83.8c-6.7 15.4-16.3 29.5-28.2 41.8-17.9 18.7-41.2 33.3-67.7 42z"/>
			</g>
			<g id="&lt;Group&gt;">
				<path id="&lt;Path&gt;" class="s12" d="m914.2 233.2l-145.3-127.1c5-17.8 7.7-36.4 7.7-55.6 0-18.5-2.5-36.4-7.2-53.6h144.8z"/>
				<path id="&lt;Path&gt;" class="s13" d="m768.9 400.9h-528.6l-241-210.7v-193.3h252.2c-4.6 17.2-7.1 35.1-7.1 53.6 0 128.5 119.1 232.6 266.1 232.6 66.4 0 127.1-21.3 173.7-56.5l130.8 114.3 99.2-86.7v19.7z"/>
				<path id="&lt;Path&gt;" class="s14" d="m815 340.9l-130.8-114.3c41.2-31 71.3-72.8 84.7-120.5l145.3 127.1v21z"/>
				<path id="&lt;Path&gt;" class="s15" d="m914.2 400.9h-145.3l145.3-127z"/>
				<path id="&lt;Path&gt;" class="s16" d="m240.3 400.9h-241v-210.7z"/>
				<path id="&lt;Path&gt;" class="s17" d="m768.9 106.1l-125-109.2h125.5c4.7 17.2 7.2 35.1 7.2 53.6 0 19.2-2.7 37.8-7.7 55.6z"/>
				<path id="&lt;Path&gt;" class="s18" d="m684.2 226.6l-262.8-229.7h222.5l125 109.2c-13.4 47.7-43.5 89.5-84.7 120.5z"/>
				<path id="&lt;Path&gt;" class="s19" d="m510.5 283.1c-147 0-266.1-104.1-266.1-232.6 0-18.5 2.5-36.4 7.1-53.6h169.9l262.8 229.7c-46.6 35.2-107.3 56.5-173.7 56.5z"/>
			</g>
			<g id="&lt;Group&gt;">
				<g id="&lt;Group&gt;">
					<path id="&lt;Path&gt;" class="s2" d="m200.6 1181.2l14.1 2.2 0.1 0.5z"/>
					<path id="&lt;Path&gt;" class="s2" d="m200.6 1181.2l14.1 2.2 0.1 0.5z"/>
					<path id="&lt;Path&gt;" class="s20" d="m99.4 805.2h219.9l-191.1 94.4z"/>
					<path id="&lt;Path&gt;" class="s21" d="m-0.7 1592.1v-76.9c20.5 28.6 45.4 54.5 74 76.9z"/>
					<path id="&lt;Path&gt;" class="s2" d="m200.6 1181.2l14.1 2.2 0.1 0.5z"/>
					<path id="&lt;Path&gt;" class="s22" d="m-0.7 963.3v-158.1h100.1l28.8 94.4z"/>
					<path id="&lt;Path&gt;" class="s23" d="m-0.7 1515.2v-365.4l201.3 31.4 14.2 2.7 49.9 163.6-173.1 244.6h-18.3c-28.6-22.4-53.5-48.3-74-76.9z"/>
					<path id="&lt;Path&gt;" class="s24" d="m214.8 1183.9l146 27.9-96.1 135.7z"/>
					<path id="&lt;Path&gt;" class="s25" d="m214.7 1183.4l149.6 23.3-3.5 5.1-146-27.9z"/>
					<path id="&lt;Path&gt;" class="s2" d="m200.6 1181.2l14.1 2.2 0.1 0.5z"/>
					<path id="&lt;Path&gt;" class="s26" d="m264.7 1347.5l96.1-135.7 93.1 17.7v362.6h-114.6z"/>
					<path id="&lt;Path&gt;" class="s27" d="m91.6 1592.1l173.1-244.6 74.6 244.6z"/>
					<path id="&lt;Path&gt;" class="s28" d="m158.6 999.4c57.8-26.6 123.7-41.6 193.5-41.6 35.1 0 69.2 3.8 101.8 11v260.7l-93.1-17.7 3.5-5.1-149.6-23.3z"/>
					<path id="&lt;Path&gt;" class="s13" d="m-0.7 1142.8v-14.3c39-54.4 94.1-99.1 159.3-129.1l56.1 184-14.1-2.2z"/>
					<path id="&lt;Path&gt;" class="s29" d="m-0.7 1128.5v-165.2l128.9-63.7 30.4 99.8c-65.2 30-120.3 74.7-159.3 129.1z"/>
					<path id="&lt;Path&gt;" class="s30" d="m128.2 899.6l191.1-94.4h134.6v163.6c-32.6-7.2-66.7-11-101.8-11-69.8 0-135.7 15-193.5 41.6z"/>
					<path id="&lt;Path&gt;" class="s31" d="m-0.7 1149.8v-7l201.3 38.4z"/>
				</g>
				<g id="&lt;Group&gt;">
					<path id="&lt;Path&gt;" class="s2" d="m866.2 1123.9c13.5-14.7 28.1-28.6 43.7-41.6v56.2z"/>
					<path id="&lt;Path&gt;" class="s32" d="m455.3 1592.1v-189.1l349.8-191.7c-26.5 51.5-41.3 108.7-41.3 168.8 0 77.6 24.6 150.2 67.3 212z"/>
					<path id="&lt;Path&gt;" class="s33" d="m455.3 1403v-138.4c29.6-31.1 52.2-67.5 65.8-107.2 29 34.8 76.1 57.5 129.1 57.5 76.9 0 141.1-47.6 156.2-110.9l59.8 19.9c-24.3 26.7-44.9 56-61.1 87.4z"/>
					<path id="&lt;Path&gt;" class="s34" d="m455.3 874.6v-69.4h56.7l397.9 132.9v144.2c-15.6 13-30.2 26.9-43.7 41.6l-59.8-19.9c2.2-9.2 3.3-18.8 3.3-28.6 0-77-71.4-139.4-159.5-139.4-51.4 0-97.1 21.2-126.3 54.3-13.2-43.1-37-82.4-68.6-115.7z"/>
					<path id="&lt;Path&gt;" class="s2" d="m909.9 1082.3v56.2l-43.7-14.6c13.5-14.7 28.1-28.6 43.7-41.6z"/>
					<path id="&lt;Path&gt;" class="s35" d="m512 805.2h397.9v132.9z"/>
					<path id="&lt;Path&gt;" class="s36" d="m455.3 1264.6v-277.9l56.7 19c-13.5 20.5-21.3 44.3-21.3 69.7 0 30.6 11.3 59 30.4 82-13.6 39.7-36.2 76.1-65.8 107.2z"/>
					<path id="&lt;Path&gt;" class="s37" d="m455.3 986.7v-112.1c31.6 33.3 55.4 72.6 68.6 115.7-4.3 4.8-8.3 10-11.9 15.4z"/>
					<path id="&lt;Path&gt;" class="s38" d="m763.8 1380.1c0-60.1 14.8-117.3 41.3-168.8l104.8-57.4v438.2h-78.8c-42.7-61.8-67.3-134.4-67.3-212z"/>
					<path id="&lt;Path&gt;" class="s39" d="m805.1 1211.3c16.2-31.4 36.8-60.7 61.1-87.4l43.7 14.6v15.4z"/>
					<path id="&lt;Path&gt;" class="s40" d="m866.2 1123.9c13.5-14.7 28.1-28.6 43.7-41.6v56.2z"/>
					<path id="&lt;Path&gt;" class="s41" d="m535.8 1069.6c0-19.9-2.2-39.3-6.3-58.1l276.9 92.5c-15.1 63.3-79.3 110.9-156.2 110.9-53 0-100.1-22.7-129.1-57.5 9.6-27.8 14.7-57.3 14.7-87.8z"/>
					<path id="&lt;Path&gt;" class="s42" d="m490.7 1075.4c0-25.4 7.8-49.2 21.3-69.7l17.5 5.8c4.1 18.8 6.3 38.2 6.3 58.1 0 30.5-5.1 60-14.7 87.8-19.1-23-30.4-51.4-30.4-82z"/>
					<path id="&lt;Path&gt;" class="s43" d="m523.9 990.3c29.2-33.1 74.9-54.3 126.3-54.3 88.1 0 159.5 62.4 159.5 139.4 0 9.8-1.1 19.4-3.3 28.6l-276.9-92.5c-1.6-7.2-3.5-14.2-5.6-21.2z"/>
					<path id="&lt;Path&gt;" class="s44" d="m512 1005.7c3.6-5.4 7.6-10.6 11.9-15.4 2.1 7 4 14 5.6 21.2z"/>
				</g>
			</g>
		</g>
	</g>
</svg>