<svg version="1.2" xmlns="http://www.w3.org/2000/svg" viewBox="0 0 907 1595" width="907" height="1595">
	<title>geometric_frame_banner-20-ai</title>
	<style>
		.s0 { fill: #ef437a } 
		.s1 { fill: #000000 } 
		.s2 { fill: #293690 } 
		.s3 { fill: #fede1e } 
		.s4 { fill: #d31d53 } 
		.s5 { fill: #008155 } 
		.s6 { fill: #89ceb3 } 
		.s7 { fill: #03abdf } 
		.s8 { fill: #d975ae } 
		.s9 { fill: #da64a6 } 
		.s10 { fill: #ee2739 } 
		.s11 { fill: #ab1f23 } 
		.s12 { fill: #60cbee } 
		.s13 { fill: #510e22 } 
		.s14 { fill: #fed49f } 
		.s15 { fill: #5a4da0 } 
		.s16 { fill: #f68b23 } 
		.s17 { fill: #fdba24 } 
		.s18 { fill: #c96528 } 
		.s19 { fill: #00766e } 
		.s20 { fill: #4ab1e4 } 
		.s21 { fill: #c61e5a } 
		.s22 { fill: #8a211b } 
		.s23 { fill: #630813 } 
		.s24 { fill: #88499c } 
		.s25 { fill: #425fab } 
		.s26 { fill: #bda430 } 
		.s27 { fill: #dfe21d } 
		.s28 { fill: #f68e59 } 
		.s29 { fill: #ffca11 } 
		.s30 { fill: #ee2135 } 
		.s31 { fill: #db4298 } 
		.s32 { fill: #532a80 } 
		.s33 { fill: #7b1238 } 
	</style>
	<g id="Layer 1">
		<g id="&lt;Group&gt;">
			<g id="&lt;Group&gt;">
				<g id="&lt;Group&gt;">
					<path id="&lt;Path&gt;" class="s0" d="m-3.1-2h56.3c-20.1 10.2-39 22.1-56.3 35.4z"/>
					<path id="&lt;Path&gt;" class="s1" d="m290.7 399.2l206-338.3c54.9 54.2 88.1 125.4 88.1 203.4 0 48.4-12.8 94.2-35.7 134.9z"/>
					<path id="&lt;Path&gt;" class="s2" d="m409-2h126l-38.3 62.9c-25.1-24.8-54.7-46.1-87.7-62.9z"/>
					<path id="&lt;Path&gt;" class="s3" d="m890.6-2h18.6v401.2h-262.9z"/>
					<path id="&lt;Path&gt;" class="s4" d="m221.8 63.7h104.7v-65.7h82.5c33 16.8 62.6 38.1 87.7 62.9l-206 338.3h-93l-200.8-115.5v-250.3c17.3-13.3 36.2-25.2 56.3-35.4h168.6z"/>
					<path id="&lt;Path&gt;" class="s1" d="m496.7 60.9c54.9 54.2 88.1 125.4 88.1 203.4 0 48.4-12.8 94.2-35.7 134.9h-258.4z"/>
					<path id="&lt;Path&gt;" class="s5" d="m535-2h355.6l-244.3 401.2h-97.2c22.9-40.7 35.7-86.5 35.7-134.9 0-78-33.2-149.2-88.1-203.4z"/>
					<path id="&lt;Path&gt;" class="s6" d="m290.7 399.2l206-338.3c54.9 54.2 88.1 125.4 88.1 203.4 0 48.4-12.8 94.2-35.7 134.9z"/>
					<path id="&lt;Path&gt;" class="s7" d="m-3.1 283.7l200.8 115.5h-200.8z"/>
					<path id="&lt;Path&gt;" class="s8" d="m221.8-2h104.7v65.7h-104.7z"/>
				</g>
				<g id="&lt;Group&gt;">
					<path id="&lt;Path&gt;" class="s9" d="m-3.1 564.9l144.9 126.2c-5 17.7-7.7 36.2-7.7 55.2 0 18.3 2.5 36.2 7.1 53.2h-144.3z"/>
					<path id="&lt;Path&gt;" class="s10" d="m141.7 398.4h527.1l240.4 209.2v191.9h-251.6c4.7-17 7.1-34.9 7.1-53.2 0-127.6-118.8-231-265.3-231-66.2 0-126.7 21.1-173.2 56.1l-130.4-113.5-98.9 86.1v-19.5z"/>
					<path id="&lt;Path&gt;" class="s11" d="m95.8 457.9l130.4 113.5c-41 30.8-71.1 72.4-84.4 119.7l-144.9-126.2v-20.9z"/>
					<path id="&lt;Path&gt;" class="s12" d="m-3.1 398.4h144.8l-144.8 126.1z"/>
					<path id="&lt;Path&gt;" class="s13" d="m668.8 398.4h240.4v209.2z"/>
					<path id="&lt;Path&gt;" class="s14" d="m141.8 691.1l124.6 108.4h-125.2c-4.6-17-7.1-34.9-7.1-53.2 0-19 2.7-37.5 7.7-55.2z"/>
					<path id="&lt;Path&gt;" class="s15" d="m226.2 571.4l262 228.1h-221.8l-124.6-108.4c13.3-47.3 43.4-88.9 84.4-119.7z"/>
					<path id="&lt;Path&gt;" class="s16" d="m399.4 515.3c146.5 0 265.3 103.4 265.3 231 0 18.3-2.4 36.2-7.1 53.2h-169.4l-262-228.1c46.5-35 107-56.1 173.2-56.1z"/>
				</g>
			</g>
			<g id="&lt;Group&gt;">
				<g id="&lt;Group&gt;">
					<path id="&lt;Path&gt;" class="s17" d="m83.8 1196.6h-86.9v-401.2h203.3l275.8 240.1 275.8-240.1h157.4v92.4l-252.1 219.5c-56-37.7-124.1-62.4-198.4-69.1l-170.5-148.5-278.4 242.4z"/>
					<path id="&lt;Path&gt;" class="s18" d="m86.5 1196.6h-2.7l-74-64.5 278.4-242.4 170.5 148.5q-20-1.8-40.5-1.8c-139.9 0-262.6 64-331.7 160.2z"/>
					<path id="&lt;Path&gt;" class="s1" d="m83.8 1196.6h2.7q-0.5 0.7-1 1.4z"/>
					<path id="&lt;Path&gt;" class="s19" d="m476 1035.5l-275.8-240.1h551.6z"/>
					<path id="&lt;Path&gt;" class="s20" d="m909.2 1196.6h-159.2c-24.7-34.4-56.2-64.6-92.9-89.3l252.1-219.5z"/>
					<path id="&lt;Path&gt;" class="s21" d="m554.5 1196.6h-468c69.1-96.2 191.8-160.2 331.7-160.2q20.5 0 40.5 1.8l138.9 120.9z"/>
					<path id="&lt;Path&gt;" class="s22" d="m597.6 1159.1l-138.9-120.9c74.3 6.7 142.4 31.4 198.4 69.1z"/>
					<path id="&lt;Path&gt;" class="s23" d="m750 1196.6h-109.4l-43-37.5 59.5-51.8c36.7 24.7 68.2 54.9 92.9 89.3z"/>
					<path id="&lt;Path&gt;" class="s24" d="m640.6 1196.6h-86.1l43.1-37.5z"/>
				</g>
				<g id="&lt;Group&gt;">
					<path id="&lt;Path&gt;" class="s25" d="m876 1374.5l-68.9-60c-5-42.5-19.1-82.8-40.5-119.3h142.6v150.4z"/>
					<path id="&lt;Path&gt;" class="s26" d="m793.1 1446.6c10.5-30.7 16.1-63.2 16.1-96.8q0-17.9-2.1-35.3l68.9 60z"/>
					<path id="&lt;Path&gt;" class="s27" d="m909.2 1403.4l-33.2-28.9 33.2-28.9z"/>
					<path id="&lt;Path&gt;" class="s28" d="m909.2 1596.4h-221.6c49-40.5 85.9-91.9 105.5-149.8l82.9-72.1 33.2 28.9z"/>
					<path id="&lt;Path&gt;" class="s29" d="m148.8 1596.4h-151.9v-401.2h72.9c-27.2 46.4-42.5 99-42.5 154.6 0 97 46.6 184.6 121.5 246.6z"/>
					<path id="&lt;Path&gt;" class="s30" d="m574.1 1596.4h-425.3c-74.9-62-121.5-149.6-121.5-246.6 0-55.6 15.3-108.2 42.5-154.6h43.5z"/>
					<path id="&lt;Path&gt;" class="s31" d="m625.4 1592.6l-278.4-242.4 178-155h145.1l137 119.3q2.1 17.4 2.1 35.3c0 33.6-5.6 66.1-16.1 96.8z"/>
					<path id="&lt;Path&gt;" class="s32" d="m807.1 1314.5l-137-119.3h96.5c21.4 36.5 35.5 76.8 40.5 119.3z"/>
					<path id="&lt;Path&gt;" class="s33" d="m687.6 1596.4h-113.5l-460.8-401.2h411.7l-178 155 278.4 242.4 167.7-146c-19.6 57.9-56.5 109.3-105.5 149.8z"/>
				</g>
			</g>
		</g>
	</g>
</svg>