<svg version="1.2" xmlns="http://www.w3.org/2000/svg" viewBox="0 0 905 1588" width="905" height="1588">
	<title>geometric_frame_banner-20-ai</title>
	<style>
		.s0 { fill: #55b4e6 } 
		.s1 { fill: #fcef49 } 
		.s2 { fill: #037383 } 
		.s3 { fill: #221d5d } 
		.s4 { fill: #feda28 } 
		.s5 { fill: #5b54a4 } 
		.s6 { fill: #ee2c43 } 
		.s7 { fill: #faab6b } 
		.s8 { fill: #0094af } 
		.s9 { fill: #ab1f23 } 
		.s10 { fill: #4db4e6 } 
		.s11 { fill: #6f2c91 } 
		.s12 { fill: #ea1756 } 
		.s13 { fill: #fbc0ab } 
		.s14 { fill: #f3de09 } 
		.s15 { fill: #9e8a31 } 
		.s16 { fill: #b7d545 } 
		.s17 { fill: #37c1d2 } 
		.s18 { fill: #000000 } 
		.s19 { fill: #8db9e3 } 
		.s20 { fill: #7b2882 } 
		.s21 { fill: #2f489e } 
		.s22 { fill: #d51d4f } 
		.s23 { fill: #fab799 } 
		.s24 { fill: #a02b90 } 
		.s25 { fill: #79d2f7 } 
		.s26 { fill: #ffca13 } 
		.s27 { fill: #b0d2ef } 
		.s28 { fill: #ed2690 } 
		.s29 { fill: #9e6f29 } 
		.s30 { fill: #d64e9c } 
		.s31 { fill: #5e1e5f } 
		.s32 { fill: #f1ea25 } 
		.s33 { fill: #487cbf } 
		.s34 { fill: #3e60ac } 
		.s35 { fill: #580826 } 
		.s36 { fill: #c74a9b } 
		.s37 { fill: #fee738 } 
		.s38 { fill: #e26eaa } 
		.s39 { fill: #00a77f } 
		.s40 { fill: #ef4a8d } 
		.s41 { fill: #f37e88 } 
		.s42 { fill: #f89a3c } 
		.s43 { fill: #be4226 } 
		.s44 { fill: #ed1c25 } 
	</style>
	<g id="Layer 1">
		<g id="&lt;Group&gt;">
			<g id="&lt;Group&gt;">
				<path id="&lt;Path&gt;" class="s0" d="m907.8 1595.8h-96.2l-88.9-162.8 55.6-157.3c38.2 12.1 79.5 18.6 122.5 18.6q3.5 0 7 0z"/>
				<path id="&lt;Path&gt;" class="s1" d="m722.7 1433l-130.9-239.4h44.7c38.6 36.4 87.1 64.9 141.8 82.1z"/>
				<path id="&lt;Path&gt;" class="s2" d="m778.3 1275.7c-54.7-17.2-103.2-45.7-141.8-82.1h170.8z"/>
				<path id="&lt;Path&gt;" class="s3" d="m664.2 1595.8h-117.4c-46.1-100.5-159.2-171.5-291.5-171.5-16.8 0-33.3 1.2-49.5 3.4l-127.9-234.1h512.9l130.9 239.4z"/>
				<path id="&lt;Path&gt;" class="s4" d="m811.6 1595.8h-146.4l57.5-162.8z"/>
				<path id="&lt;Path&gt;" class="s5" d="m-9.8 1552.4v-358.8h88.7l127.9 234.1c-91.3 12.6-169.5 59.3-216.6 124.7z"/>
				<path id="&lt;Path&gt;" class="s6" d="m547.8 1595.8h-249.1l-91.9-168.1c16.2-2.2 32.7-3.4 49.5-3.4 132.3 0 245.4 71 291.5 171.5z"/>
				<path id="&lt;Path&gt;" class="s7" d="m298.7 1595.8h-308.5v-43.4c47.1-65.4 125.3-112.1 216.6-124.7z"/>
				<path id="&lt;Path&gt;" class="s8" d="m900.8 1294.3c-43 0-84.3-6.5-122.5-18.6l29-82.1h100.5v100.7q-3.5 0-7 0z"/>
			</g>
			<g id="&lt;Group&gt;">
				<path id="&lt;Path&gt;" class="s9" d="m612 1194.1h-34.2l-81.6-149.2c15-17.6 23.8-39.3 23.8-62.8 0-56.6-51.3-102.9-115.8-105.5l-46.2-84.7h285.6c-62.9 56.2-101.7 132.8-101.7 217.3 0 69.2 26.1 133.2 70.1 184.9z"/>
				<path id="&lt;Path&gt;" class="s10" d="m64.8 1194.1h-74.6v-136.5z"/>
				<path id="&lt;Path&gt;" class="s11" d="m577.8 1194.1h-513l-74.6-136.5v-265.7h367.8l46.2 84.7q-2.9-0.2-5.9-0.2c-67.2 0-121.7 47.3-121.7 105.7 0 58.3 54.5 105.6 121.7 105.6 40.2 0 75.7-16.8 97.9-42.8z"/>
				<path id="&lt;Path&gt;" class="s12" d="m816.3 1194.1h-204.3c-44-51.7-70.1-115.7-70.1-184.9 0-84.5 38.8-161.1 101.7-217.3h264.2v143.4z"/>
				<path id="&lt;Path&gt;" class="s13" d="m907.8 1194.1h-91.5l91.5-258.8z"/>
				<path id="&lt;Path&gt;" class="s14" d="m496.2 1044.9l-92-168.3c64.5 2.6 115.8 48.9 115.8 105.5 0 23.5-8.8 45.2-23.8 62.8z"/>
				<path id="&lt;Path&gt;" class="s15" d="m398.3 1087.7c-67.2 0-121.7-47.3-121.7-105.6 0-58.4 54.5-105.7 121.7-105.7q3 0 5.9 0.2l92 168.3c-22.2 26-57.7 42.8-97.9 42.8z"/>
			</g>
			<g id="&lt;Group&gt;">
				<path id="&lt;Path&gt;" class="s16" d="m332.9 597.1l70.8 62.6c-55.8 28.5-96.7 76.4-110.2 132.9h-136.5c-9.3-24.4-14.5-38-14.5-38z"/>
				<path id="&lt;Path&gt;" class="s17" d="m788.3 395h118.3v259.3l-133.6-104.4c5.4-55 10.6-107.1 15.3-154.9z"/>
				<path id="&lt;Path&gt;" class="s18" d="m749.9 780.6q1.9 6 3.4 12h-4.6c0.4-4 0.8-8 1.2-12z"/>
				<path id="&lt;Path&gt;" class="s19" d="m574.8 395h89.1l-25.8 49.5z"/>
				<path id="&lt;Path&gt;" class="s20" d="m-7.4 395h111.5l117.4 103.7-228.9 92.3z"/>
				<path id="&lt;Path&gt;" class="s21" d="m663.9 395h124.4c-4.7 47.8-9.9 99.9-15.3 154.9l-134.9-105.4z"/>
				<path id="&lt;Path&gt;" class="s22" d="m104.1 395h470.7l63.3 49.5-97.9 187.5q-8.3-0.6-16.8-0.6c-43.7 0-84.6 10.3-119.7 28.3l-70.8-62.6 45.9-38-74.6-93.7-82.7 33.3z"/>
				<path id="&lt;Path&gt;" class="s23" d="m638.1 444.5l134.9 105.4c-7.3 72.8-15 150.6-23.1 230.7-25.6-81.5-108.9-142.5-209.7-148.6z"/>
				<path id="&lt;Path&gt;" class="s24" d="m773 549.9l133.6 104.4v138.3h-153.3q-1.5-6-3.4-12c8.1-80.1 15.8-157.9 23.1-230.7z"/>
				<path id="&lt;Path&gt;" class="s25" d="m221.5 498.7l111.4 98.4-190.4 157.5c0 0 5.2 13.6 14.5 38h-164.4v-201.6z"/>
				<path id="&lt;Path&gt;" class="s26" d="m304.2 465.4l74.6 93.7-45.9 38-111.4-98.4z"/>
				<path id="&lt;Path&gt;" class="s27" d="m540.2 632c100.8 6.1 184.1 67.1 209.7 148.6-0.4 4-0.8 8-1.2 12h-194.4l-67-59.1v-0.1z"/>
				<path id="&lt;Path&gt;" class="s28" d="m487.3 733.5l67 59.1h-97.9z"/>
				<path id="&lt;Path&gt;" class="s29" d="m523.4 631.4q8.5 0 16.8 0.6l-52.9 101.4-83.6-73.7c35.1-18 76-28.3 119.7-28.3z"/>
				<path id="&lt;Path&gt;" class="s30" d="m403.7 659.7l83.6 73.7v0.1l-30.9 59.1h-162.9c13.5-56.5 54.4-104.4 110.2-132.9z"/>
			</g>
			<g id="&lt;Group&gt;">
				<path id="&lt;Path&gt;" class="s31" d="m166.4 265.4l-173.8-153.6v-111.8h200.9c-8.9 86-18 175.7-27.1 265.4z"/>
				<path id="&lt;Path&gt;" class="s18" d="m166.4 265.4l10.6 9.3q-7.6 10.4-13.7 21.6 1.5-15.5 3.1-30.9z"/>
				<path id="&lt;Path&gt;" class="s32" d="m732.5 397.7h-122.6q0.7-7.7 0.7-15.6c0-56.7-27.1-108-70.9-144.7l37-70.8c24.3 11 50.3 19.6 77.5 25.5 32.6 85.5 60 157.6 78.3 205.6z"/>
				<path id="&lt;Path&gt;" class="s33" d="m163.3 296.3c-3.5 33.9-6.9 67.8-10.2 101.4h-11.3q-0.7-7.7-0.7-15.6c0-30.7 7.9-59.7 22.2-85.8z"/>
				<path id="&lt;Path&gt;" class="s34" d="m177 274.7l-10.6-9.3c9.1-89.7 18.2-179.4 27.1-265.4h214.3c30.3 72 91 131.4 168.9 166.6l-37 70.8c-42.2-35.5-100.1-57.4-163.8-57.4-83.9 0-157.4 37.8-198.9 94.7z"/>
				<path id="&lt;Path&gt;" class="s35" d="m741.2 201.4c-30.1 0-59.2-3.2-87-9.3-12.1-31.8-25-65.5-38.4-100.5l47.8-91.6h243v166.1c-49.4 22.5-105.7 35.3-165.4 35.3z"/>
				<path id="&lt;Path&gt;" class="s18" d="m166.4 265.4l10.6 9.3q-7.6 10.4-13.7 21.6 1.5-15.5 3.1-30.9z"/>
				<path id="&lt;Path&gt;" class="s36" d="m141.8 397.7h-149.2v-285.9l173.8 153.6q-1.6 15.4-3.1 30.9c-14.3 26.1-22.2 55.1-22.2 85.8q0 7.9 0.7 15.6z"/>
				<path id="&lt;Path&gt;" class="s37" d="m177 274.7q-7.6 10.4-13.7 21.6 1.5-15.5 3.1-30.9z"/>
				<path id="&lt;Path&gt;" class="s38" d="m906.6 397.7h-174.1c-18.3-48-45.7-120.1-78.3-205.6 27.8 6.1 56.9 9.3 87 9.3 59.7 0 116-12.8 165.4-35.3z"/>
				<path id="&lt;Path&gt;" class="s39" d="m609.9 397.7h-153.8l83.6-160.3c43.8 36.7 70.9 88 70.9 144.7q0 7.9-0.7 15.6z"/>
				<path id="&lt;Path&gt;" class="s40" d="m456.1 397.7h-139.9l-139.2-123c41.5-56.9 115-94.7 198.9-94.7 63.7 0 121.6 21.9 163.8 57.4z"/>
				<path id="&lt;Path&gt;" class="s41" d="m316.2 397.7h-163.1c3.3-33.6 6.7-67.5 10.2-101.4q6.1-11.2 13.7-21.6z"/>
				<path id="&lt;Path&gt;" class="s42" d="m654.2 192.1c-27.2-5.9-53.2-14.5-77.5-25.5l39.1-75c13.4 35 26.3 68.7 38.4 100.5z"/>
				<path id="&lt;Path&gt;" class="s43" d="m576.7 166.6c-77.9-35.2-138.6-94.6-168.9-166.6h173.2c11.9 31.2 23.5 61.9 34.8 91.6z"/>
				<path id="&lt;Path&gt;" class="s44" d="m615.8 91.6c-11.3-29.7-22.9-60.4-34.8-91.6h82.6z"/>
			</g>
		</g>
	</g>
</svg>